<svg width="216" height="216" viewBox="0 0 216 216" fill="none" xmlns="http://www.w3.org/2000/svg">
<g clip-path="url(#clip0_631_70)">
<path d="M114.95 215.58C70.4496 215.21 40.3396 199.01 18.4496 168.01C7.3396 152.28 1.4596 134.44 0.2296 114.88C-1.2904 90.65 4.6196 68.56 17.6896 48.53C27.0496 34.18 39.4496 22.68 54.6096 14.14C73.4496 3.53003 93.5396 -1.13997 114.97 0.230031C136.4 1.60003 155.76 8.84003 172.93 21.9C187.41 32.92 198.52 46.62 206.07 63.12C211.44 74.86 214.5 87.27 215.47 100.19C217.06 121.36 212.88 141.25 202.56 159.82C201.83 161.13 201.06 162.41 200.34 163.73C198.18 167.69 195.78 167.45 193.02 164.28C185.59 155.73 178.2 147.16 171.35 138.13C163.99 128.43 157.27 118.31 151.02 107.86C148.08 102.94 143.87 99.11 139.87 95.1C138.26 93.49 136.75 93.47 135.1 95.03C127.45 102.25 118.83 108.28 110.47 114.61C108.07 116.43 107.87 118.17 109.36 120.54C112.56 125.63 116.04 130.44 120.34 134.72C137.36 151.7 152.61 170.18 166.29 189.95C170.23 195.64 170.06 196.41 164.13 199.95C147.08 210.14 128.9 216.29 114.95 215.57V215.58ZM127.24 39.03C122.28 39.43 117.37 38.46 112.66 39.75C102.53 42.51 92.6196 46 83.5796 51.4C72.6396 57.93 61.6296 63.99 56.2896 77.15C52.2796 87.02 43.5696 93.47 33.0996 96.21C25.2496 98.27 19.5896 103.04 14.1596 108.49C11.9196 110.74 11.1196 113.01 13.2296 115.98C18.2896 123.08 24.2296 129.34 30.6596 135.16C32.8196 137.12 35.5296 137.94 38.0396 136.46C42.7796 133.67 47.7896 130.55 49.8896 125.36C55.3096 111.98 66.0296 105.58 78.9696 101.74C83.2096 100.48 87.0996 100.85 90.3696 104.46C93.0496 107.41 96.1796 109.94 98.9796 112.79C100.68 114.52 102.24 114.76 104.19 113.25C113.67 105.92 123.19 98.64 132.67 91.32C135.6 89.06 135.74 86.54 133.51 83.56C131.42 80.77 129.6 77.77 127.72 74.82C121.93 65.75 124.65 59.56 135.41 57.87C146.04 56.2 156.68 57.3 167.25 58.67C176.67 59.9 185.92 62.05 195.14 64.32C196.57 64.67 198.17 65.41 199.29 63.9C200.3 62.54 199.59 60.98 199.13 59.59C198.31 57.1 196.06 56.24 193.86 55.41C192.15 54.77 190.4 54.25 188.72 53.56C168.95 45.41 148.8 38.85 127.21 39.04L127.24 39.03Z" fill="#5BC43A" style="fill:#5BC43A;fill:color(display-p3 0.3569 0.7686 0.2275);fill-opacity:1;"/>
</g>
<defs>
<clipPath id="clip0_631_70">
<rect width="215.8" height="215.64" fill="white" style="fill:white;fill-opacity:1;"/>
</clipPath>
</defs>
</svg>
