<?xml version="1.0" encoding="UTF-8" standalone="no"?><!DOCTYPE svg PUBLIC "-//W3C//DTD SVG 1.1//EN" "http://www.w3.org/Graphics/SVG/1.1/DTD/svg11.dtd"><svg width="100%" height="100%" viewBox="0 0 290 274" version="1.1" xmlns="http://www.w3.org/2000/svg" xmlns:xlink="http://www.w3.org/1999/xlink" xml:space="preserve" xmlns:serif="http://www.serif.com/" style="fill-rule:evenodd;clip-rule:evenodd;stroke-linejoin:round;stroke-miterlimit:2;"><ellipse cx="144.578" cy="136.943" rx="144.578" ry="136.943" style="fill:#3bcb38;"/><path d="M136.779,224.392l-57.07,-32.815c-3.614,-2.093 -6.42,-4.851 -8.418,-8.275c-1.997,-3.425 -2.996,-7.229 -2.996,-11.414l0,-65.63c0,-4.185 0.999,-7.99 2.996,-11.414c1.998,-3.424 4.804,-6.183 8.418,-8.275l57.07,-32.815c3.614,-2.093 7.419,-3.139 11.414,-3.139c3.995,-0 7.799,1.046 11.414,3.139l57.069,32.815c3.614,2.092 6.42,4.851 8.418,8.275c1.997,3.424 2.996,7.229 2.996,11.414l-0,65.63c-0,4.185 -0.999,7.989 -2.996,11.414c-1.998,3.424 -4.804,6.182 -8.418,8.275l-57.069,32.815c-3.615,2.092 -7.419,3.138 -11.414,3.138c-3.995,0 -7.8,-1.046 -11.414,-3.138Zm-0,-26.252l-0,-52.504l-45.656,-26.538l0,52.79l45.656,26.252Zm22.828,-0l45.655,-26.252l0,-52.79l-45.655,26.538l-0,52.504Z" style="fill:#f9f9f9;fill-rule:nonzero;"/></svg>