<svg width="51" height="51" viewBox="0 0 51 51" fill="none" xmlns="http://www.w3.org/2000/svg">
<path d="M26.054 10.0884C25.9057 9.94658 25.7084 9.8674 25.5032 9.8674C25.298 9.8674 25.1006 9.94658 24.9523 10.0884L6.61426 27.6067C6.53638 27.6812 6.47442 27.7708 6.43213 27.8699C6.38984 27.969 6.3681 28.0757 6.36822 28.1835L6.36523 44.625C6.36523 45.4704 6.70106 46.2811 7.29883 46.8789C7.8966 47.4767 8.70736 47.8125 9.55273 47.8125H19.1252C19.5479 47.8125 19.9533 47.6446 20.2521 47.3457C20.551 47.0468 20.7189 46.6414 20.7189 46.2188V32.6719C20.7189 32.4605 20.8029 32.2578 20.9523 32.1084C21.1018 31.959 21.3045 31.875 21.5158 31.875H29.4846C29.6959 31.875 29.8986 31.959 30.048 32.1084C30.1975 32.2578 30.2814 32.4605 30.2814 32.6719V46.2188C30.2814 46.6414 30.4494 47.0468 30.7482 47.3457C31.0471 47.6446 31.4525 47.8125 31.8752 47.8125H41.4437C42.2891 47.8125 43.0998 47.4767 43.6976 46.8789C44.2953 46.2811 44.6312 45.4704 44.6312 44.625V28.1835C44.6313 28.0757 44.6096 27.969 44.5673 27.8699C44.525 27.7708 44.463 27.6812 44.3851 27.6067L26.054 10.0884Z" fill="white" style="fill:white;fill-opacity:1;"/>
<path d="M48.8993 24.3196L41.4485 17.1916V6.375C41.4485 5.95231 41.2806 5.54693 40.9817 5.24805C40.6828 4.94916 40.2774 4.78125 39.8547 4.78125H35.0735C34.6508 4.78125 34.2454 4.94916 33.9465 5.24805C33.6477 5.54693 33.4797 5.95231 33.4797 6.375V9.5625L27.7104 4.04613C27.1705 3.50027 26.3676 3.1875 25.5 3.1875C24.6354 3.1875 23.8346 3.50027 23.2947 4.04713L2.10777 24.3176C1.4882 24.9153 1.41051 25.8984 1.9743 26.5459C2.11587 26.7093 2.28922 26.8422 2.4838 26.9365C2.67837 27.0308 2.8901 27.0846 3.1061 27.0945C3.3221 27.1043 3.53784 27.0702 3.74021 26.994C3.94258 26.9178 4.12734 26.8013 4.28324 26.6515L24.9522 6.90094C25.1005 6.75907 25.2978 6.6799 25.503 6.6799C25.7083 6.6799 25.9056 6.75907 26.0539 6.90094L46.7248 26.6515C47.0293 26.9435 47.4371 27.1028 47.8589 27.0946C48.2808 27.0864 48.6821 26.9113 48.975 26.6077C49.5866 25.9741 49.5358 24.9282 48.8993 24.3196Z" fill="white" style="fill:white;fill-opacity:1;"/>
</svg>
